<?xml version="1.0" encoding="UTF-8" standalone="no"?>
<!-- Created with Inkscape (http://www.inkscape.org/) -->

<svg
   width="80.414101mm"
   height="55.099491mm"
   viewBox="0 0 80.414101 55.099491"
   version="1.1"
   id="svg1"
   xml:space="preserve"
   sodipodi:docname="pull-tab.svg"
   inkscape:version="1.4.2 (ebf0e94, 2025-05-08)"
   xmlns:inkscape="http://www.inkscape.org/namespaces/inkscape"
   xmlns:sodipodi="http://sodipodi.sourceforge.net/DTD/sodipodi-0.dtd"
   xmlns="http://www.w3.org/2000/svg"
   xmlns:svg="http://www.w3.org/2000/svg"><sodipodi:namedview
     id="namedview1"
     pagecolor="#ffffff"
     bordercolor="#000000"
     borderopacity="0.25"
     inkscape:showpageshadow="2"
     inkscape:pageopacity="0.0"
     inkscape:pagecheckerboard="0"
     inkscape:deskcolor="#d1d1d1"
     inkscape:document-units="mm"
     inkscape:zoom="0.52203984"
     inkscape:cx="290.20773"
     inkscape:cy="503.79296"
     inkscape:window-width="1440"
     inkscape:window-height="830"
     inkscape:window-x="-6"
     inkscape:window-y="-6"
     inkscape:window-maximized="1"
     inkscape:current-layer="svg1" /><defs
     id="defs1"><clipPath
       clipPathUnits="userSpaceOnUse"
       id="clipPath98"><path
         d="M -420.94501,-297.64499 V 892.91998 H 1262.835 V -297.64499 Z"
         id="path98" /></clipPath><clipPath
       clipPathUnits="userSpaceOnUse"
       id="clipPath100"><path
         d="M -420.94501,-297.64499 V 892.91998 H 1262.835 V -297.64499 Z"
         id="path100" /></clipPath><clipPath
       clipPathUnits="userSpaceOnUse"
       id="clipPath102"><path
         d="M -420.94501,-297.64499 V 892.91998 H 1262.835 V -297.64499 Z"
         transform="rotate(-179.99427,304.71047,215.59149)"
         id="path102" /></clipPath><clipPath
       clipPathUnits="userSpaceOnUse"
       id="clipPath104"><path
         d="M -420.94501,-297.64499 V 892.91998 H 1262.835 V -297.64499 Z"
         id="path104" /></clipPath><clipPath
       clipPathUnits="userSpaceOnUse"
       id="clipPath106"><path
         d="M -420.94501,-297.64499 V 892.91998 H 1262.835 V -297.64499 Z"
         transform="rotate(-90,49.567506,559.87501)"
         id="path106" /></clipPath><clipPath
       clipPathUnits="userSpaceOnUse"
       id="clipPath108"><path
         d="M -420.94501,-297.64499 V 892.91998 H 1262.835 V -297.64499 Z"
         id="path108" /></clipPath><clipPath
       clipPathUnits="userSpaceOnUse"
       id="clipPath110"><path
         d="M -420.94501,-297.64499 V 892.91998 H 1262.835 V -297.64499 Z"
         id="path110" /></clipPath><clipPath
       clipPathUnits="userSpaceOnUse"
       id="clipPath112"><path
         d="M -420.94501,-297.64499 V 892.91998 H 1262.835 V -297.64499 Z"
         id="path112" /></clipPath><clipPath
       clipPathUnits="userSpaceOnUse"
       id="clipPath114"><path
         d="M -420.94501,-297.64499 V 892.91998 H 1262.835 V -297.64499 Z"
         transform="matrix(0.49997236,0.86604408,-0.86604408,0.49997236,115.43883,-786.72291)"
         id="path114" /></clipPath><clipPath
       clipPathUnits="userSpaceOnUse"
       id="clipPath116"><path
         d="M -420.94501,-297.64499 V 892.91998 H 1262.835 V -297.64499 Z"
         transform="matrix(-0.49997236,-0.86604408,0.86604408,-0.49997236,-101.2597,786.7123)"
         id="path116" /></clipPath><clipPath
       clipPathUnits="userSpaceOnUse"
       id="clipPath118"><path
         d="M -420.94501,-297.64499 V 892.91998 H 1262.835 V -297.64499 Z"
         id="path118" /></clipPath><clipPath
       clipPathUnits="userSpaceOnUse"
       id="clipPath120"><path
         d="M -420.94501,-297.64499 V 892.91998 H 1262.835 V -297.64499 Z"
         transform="rotate(-179.99427,315.33688,237.45452)"
         id="path120" /></clipPath><clipPath
       clipPathUnits="userSpaceOnUse"
       id="clipPath122"><path
         d="M -420.94501,-297.64499 V 892.91998 H 1262.835 V -297.64499 Z"
         id="path122" /></clipPath><clipPath
       clipPathUnits="userSpaceOnUse"
       id="clipPath124"><path
         d="M -420.94501,-297.64499 V 892.91998 H 1262.835 V -297.64499 Z"
         transform="matrix(-0.72219473,-0.69169453,0.69169453,-0.72219473,149.95091,773.6912)"
         id="path124" /></clipPath><clipPath
       clipPathUnits="userSpaceOnUse"
       id="clipPath126"><path
         d="M -420.94501,-297.64499 V 892.91998 H 1262.835 V -297.64499 Z"
         id="path126" /></clipPath></defs><g
     id="layer-oc8"
     transform="matrix(0.26458334,0,0,0.26458334,191.80552,-15.142126)"><g
       id="g7"><path
         id="path97"
         d="m 666.13501,361.49249 c 0,1.87973 -0.7467,3.68247 -2.07587,5.01163"
         style="fill:none;stroke:#000000;stroke-width:0.285;stroke-linecap:round;stroke-linejoin:round;stroke-miterlimit:10;stroke-dasharray:none;stroke-opacity:1"
         transform="matrix(1.3333333,0,0,-1.3333333,-1527.8842,747.28009)"
         clip-path="url(#clipPath98)" /><path
         id="path99"
         d="m 604.42499,426.13501 59.625,-59.625"
         style="fill:none;stroke:#000000;stroke-width:0.285;stroke-linecap:round;stroke-linejoin:round;stroke-miterlimit:10;stroke-dasharray:none;stroke-opacity:1"
         transform="matrix(1.3333333,0,0,-1.3333333,-1527.8842,747.28009)"
         clip-path="url(#clipPath100)" /><path
         id="path101"
         d="m 7.0875,0 c 0,1.87972 -0.74672,3.68246 -2.07588,5.01162"
         style="fill:none;stroke:#000000;stroke-width:0.285;stroke-linecap:round;stroke-linejoin:round;stroke-miterlimit:10;stroke-dasharray:none;stroke-opacity:1"
         transform="matrix(-1.3333333,-1.3333333e-4,-1.3333333e-4,1.3333333,-715.29421,172.41009)"
         clip-path="url(#clipPath102)" /><path
         id="path103"
         d="M 602.35498,510.315 V 431.14499"
         style="fill:none;stroke:#000000;stroke-width:0.285;stroke-linecap:round;stroke-linejoin:round;stroke-miterlimit:10;stroke-dasharray:none;stroke-opacity:1"
         transform="matrix(1.3333333,0,0,-1.3333333,-1527.8842,747.28009)"
         clip-path="url(#clipPath104)" /><path
         id="path105"
         d="M 7.0875,0 C 7.0875,3.91432 3.91432,7.0875 0,7.0875"
         style="fill:none;stroke:#000000;stroke-width:0.285;stroke-linecap:round;stroke-linejoin:round;stroke-miterlimit:10;stroke-dasharray:none;stroke-opacity:1"
         transform="matrix(0,-1.3333333,-1.3333333,0,-715.29421,66.870082)"
         clip-path="url(#clipPath106)" /><path
         id="path107"
         d="M 623.60999,517.39502 H 609.435"
         style="fill:none;stroke:#000000;stroke-width:0.285;stroke-linecap:round;stroke-linejoin:round;stroke-miterlimit:10;stroke-dasharray:none;stroke-opacity:1"
         transform="matrix(1.3333333,0,0,-1.3333333,-1527.8842,747.28009)"
         clip-path="url(#clipPath108)" /><path
         id="path109"
         d="m 630.70502,510.3075 c 0,3.9143 -3.17322,7.08752 -7.08753,7.08752"
         style="fill:none;stroke:#000000;stroke-width:0.285;stroke-linecap:round;stroke-linejoin:round;stroke-miterlimit:10;stroke-dasharray:none;stroke-opacity:1"
         transform="matrix(1.3333333,0,0,-1.3333333,-1527.8842,747.28009)"
         clip-path="url(#clipPath110)" /><path
         id="path111"
         d="M 630.70502,493.30499 V 510.315"
         style="fill:none;stroke:#000000;stroke-width:0.285;stroke-linecap:round;stroke-linejoin:round;stroke-miterlimit:10;stroke-dasharray:none;stroke-opacity:1"
         transform="matrix(1.3333333,0,0,-1.3333333,-1527.8842,747.28009)"
         clip-path="url(#clipPath112)" /><path
         id="path113"
         d="m 7.0875,0 c 0,2.53196 -1.3507,4.87161 -3.54336,6.13773"
         style="fill:none;stroke:#000000;stroke-width:0.285;stroke-linecap:round;stroke-linejoin:round;stroke-miterlimit:10;stroke-dasharray:none;stroke-opacity:1"
         transform="matrix(0.66662667,1.15472,1.15472,-0.66662667,-696.39414,89.530085)"
         clip-path="url(#clipPath114)" /><path
         id="path115"
         d="m 7.0875,0 c 0,2.53196 -1.3507,4.87161 -3.54336,6.13773"
         style="fill:none;stroke:#000000;stroke-width:0.285;stroke-linecap:round;stroke-linejoin:round;stroke-miterlimit:10;stroke-dasharray:none;stroke-opacity:1"
         transform="matrix(-0.66662667,-1.15472,-1.15472,0.66662667,-686.9542,105.91009)"
         clip-path="url(#clipPath116)" /><path
         id="path117"
         d="M 623.60999,474.88501 V 481.035"
         style="fill:none;stroke:#000000;stroke-width:0.285;stroke-linecap:round;stroke-linejoin:round;stroke-miterlimit:10;stroke-dasharray:none;stroke-opacity:1"
         transform="matrix(1.3333333,0,0,-1.3333333,-1527.8842,747.28009)"
         clip-path="url(#clipPath118)" /><path
         id="path119"
         d="M 7.0875,0 C 7.0875,3.91432 3.91432,7.0875 0,7.0875"
         style="fill:none;stroke:#000000;stroke-width:0.285;stroke-linecap:round;stroke-linejoin:round;stroke-miterlimit:10;stroke-dasharray:none;stroke-opacity:1"
         transform="matrix(-1.3333333,-1.3333333e-4,-1.3333333e-4,1.3333333,-686.9542,114.11009)"
         clip-path="url(#clipPath120)" /><path
         id="path121"
         d="m 634.245,463.85999 v 3.93002 h -3.53998"
         style="fill:none;stroke:#000000;stroke-width:0.285;stroke-linecap:round;stroke-linejoin:round;stroke-miterlimit:10;stroke-dasharray:none;stroke-opacity:1"
         transform="matrix(1.3333333,0,0,-1.3333333,-1527.8842,747.28009)"
         clip-path="url(#clipPath122)" /><path
         id="path123"
         d="m 12.7575,0 c 0,6.97391 -5.60004,12.65543 -12.57322,12.75617 -6.97319,0.10073 -12.73501,-5.41665 -12.93646,-12.38766 -0.20144,-6.971 5.23214,-12.81191 12.19951,-13.11403"
         style="fill:none;stroke:#000000;stroke-width:0.285;stroke-linecap:round;stroke-linejoin:round;stroke-miterlimit:10;stroke-dasharray:none;stroke-opacity:1"
         transform="matrix(-0.96292,-0.92225333,-0.92225333,0.96292,-669.9542,140.57009)"
         clip-path="url(#clipPath124)" /><path
         id="path125"
         d="m 666.13501,361.5 v 106.29001 h -13.47003 v -3.93002"
         style="fill:none;stroke:#000000;stroke-width:0.285;stroke-linecap:round;stroke-linejoin:round;stroke-miterlimit:10;stroke-dasharray:none;stroke-opacity:1"
         transform="matrix(1.3333333,0,0,-1.3333333,-1527.8842,747.28009)"
         clip-path="url(#clipPath126)" /><path
         id="path397"
         d="m -687.84419,106.00012 -8.56005,4"
         style="fill:none;stroke:#000000;stroke-width:0.38;stroke-linecap:round;stroke-linejoin:round;stroke-miterlimit:10;stroke-dasharray:none;stroke-opacity:1" /><path
         id="path398"
         d="m -688.64424,104.2801 v 0 l -7.76,5.72002 9.36001,-2.28003 z"
         style="fill:#000000;fill-opacity:1;fill-rule:evenodd;stroke:none;stroke-width:1.33333" /><path
         id="path399"
         d="m -688.64424,104.2801 -7.76,5.72002 9.36001,-2.28003 -1.60001,-3.43999"
         style="fill:none;stroke:#000000;stroke-width:0.38;stroke-linecap:round;stroke-linejoin:round;stroke-miterlimit:10;stroke-dasharray:none;stroke-opacity:1" /><path
         id="path400"
         d="m -687.84419,106.00012 76.08,-35.600025 h 16.79996 9.44003"
         style="fill:none;stroke:#000000;stroke-width:0.38;stroke-linecap:round;stroke-linejoin:round;stroke-miterlimit:10;stroke-dasharray:none;stroke-opacity:1" /><path
         id="path417"
         d="m -647.58425,126.42012 -8.09995,4.88"
         style="fill:none;stroke:#000000;stroke-width:0.38;stroke-linecap:round;stroke-linejoin:round;stroke-miterlimit:10;stroke-dasharray:none;stroke-opacity:1" /><path
         id="path418"
         d="m -648.56424,124.80012 v 0 l -7.11996,6.5 9.08,-3.26 z"
         style="fill:#000000;fill-opacity:1;fill-rule:evenodd;stroke:none;stroke-width:1.33333" /><path
         id="path419"
         d="m -648.56424,124.80012 -7.11996,6.5 9.08,-3.26 -1.96004,-3.24"
         style="fill:none;stroke:#000000;stroke-width:0.38;stroke-linecap:round;stroke-linejoin:round;stroke-miterlimit:10;stroke-dasharray:none;stroke-opacity:1" /><path
         id="path420"
         d="m -647.58425,126.42012 34.62002,-20.92 h 16.78003 9.43994"
         style="fill:none;stroke:#000000;stroke-width:0.38;stroke-linecap:round;stroke-linejoin:round;stroke-miterlimit:10;stroke-dasharray:none;stroke-opacity:1" /><text
         xml:space="preserve"
         style="text-align:start;writing-mode:lr-tb;direction:ltr;text-anchor:start;fill:#000000"
         x="-579.42102"
         y="110.033"
         id="text2-52-2-6"><tspan
           x="-579.42102"
           y="110.033"
           style="font-style:normal;font-variant:normal;font-weight:normal;font-stretch:normal;font-size:16px;font-family:Consolas;-inkscape-font-specification:'Consolas, Normal';font-variant-ligatures:normal;font-variant-caps:normal;font-variant-numeric:normal;font-variant-east-asian:normal"
           id="tspan5">color-code slot</tspan></text><text
         xml:space="preserve"
         style="text-align:start;writing-mode:lr-tb;direction:ltr;text-anchor:start;fill:#000000"
         x="-578.18665"
         y="76.112854"
         id="text2-52-2-6-0"><tspan
           x="-578.18665"
           y="76.112854"
           style="font-style:normal;font-variant:normal;font-weight:normal;font-stretch:normal;font-size:16px;font-family:Consolas;-inkscape-font-specification:'Consolas, Normal';font-variant-ligatures:normal;font-variant-caps:normal;font-variant-numeric:normal;font-variant-east-asian:normal"
           id="tspan6">finger nail detail</tspan></text></g></g></svg>
