<?xml version="1.0" encoding="UTF-8" standalone="no"?>
<!-- Created with Inkscape (http://www.inkscape.org/) -->

<svg
   width="37.12738mm"
   height="45.630814mm"
   viewBox="0 0 37.12738 45.630814"
   version="1.1"
   id="svg1"
   xml:space="preserve"
   sodipodi:docname="rail-dark.svg"
   inkscape:version="1.3.2 (091e20e, 2023-11-25, custom)"
   xmlns:inkscape="http://www.inkscape.org/namespaces/inkscape"
   xmlns:sodipodi="http://sodipodi.sourceforge.net/DTD/sodipodi-0.dtd"
   xmlns="http://www.w3.org/2000/svg"
   xmlns:svg="http://www.w3.org/2000/svg"><sodipodi:namedview
     id="namedview1"
     pagecolor="#ffffff"
     bordercolor="#000000"
     borderopacity="0.25"
     inkscape:showpageshadow="2"
     inkscape:pageopacity="0.0"
     inkscape:pagecheckerboard="0"
     inkscape:deskcolor="#d1d1d1"
     inkscape:document-units="mm"
     inkscape:zoom="2.9531033"
     inkscape:cx="157.46147"
     inkscape:cy="142.39258"
     inkscape:window-width="2560"
     inkscape:window-height="1369"
     inkscape:window-x="-8"
     inkscape:window-y="-8"
     inkscape:window-maximized="1"
     inkscape:current-layer="svg1" /><defs
     id="defs1"><clipPath
       clipPathUnits="userSpaceOnUse"
       id="clipPath278"><path
         d="M -420.94501,-297.64499 V 892.91998 H 1262.835 V -297.64499 Z"
         id="path278" /></clipPath><clipPath
       clipPathUnits="userSpaceOnUse"
       id="clipPath280"><path
         d="M -420.94501,-297.64499 V 892.91998 H 1262.835 V -297.64499 Z"
         id="path280" /></clipPath><clipPath
       clipPathUnits="userSpaceOnUse"
       id="clipPath282"><path
         d="M -420.94501,-297.64499 V 892.91998 H 1262.835 V -297.64499 Z"
         id="path282" /></clipPath><clipPath
       clipPathUnits="userSpaceOnUse"
       id="clipPath284"><path
         d="M -420.94501,-297.64499 V 892.91998 H 1262.835 V -297.64499 Z"
         id="path284" /></clipPath><clipPath
       clipPathUnits="userSpaceOnUse"
       id="clipPath286"><path
         d="M -420.94501,-297.64499 V 892.91998 H 1262.835 V -297.64499 Z"
         id="path286" /></clipPath><clipPath
       clipPathUnits="userSpaceOnUse"
       id="clipPath288"><path
         d="M -420.94501,-297.64499 V 892.91998 H 1262.835 V -297.64499 Z"
         id="path288" /></clipPath><clipPath
       clipPathUnits="userSpaceOnUse"
       id="clipPath290"><path
         d="M -420.94501,-297.64499 V 892.91998 H 1262.835 V -297.64499 Z"
         id="path290" /></clipPath><clipPath
       clipPathUnits="userSpaceOnUse"
       id="clipPath292"><path
         d="M -420.94501,-297.64499 V 892.91998 H 1262.835 V -297.64499 Z"
         id="path292" /></clipPath><clipPath
       clipPathUnits="userSpaceOnUse"
       id="clipPath294"><path
         d="M -420.94501,-297.64499 V 892.91998 H 1262.835 V -297.64499 Z"
         id="path294" /></clipPath><clipPath
       clipPathUnits="userSpaceOnUse"
       id="clipPath296"><path
         d="M -420.94501,-297.64499 V 892.91998 H 1262.835 V -297.64499 Z"
         id="path296" /></clipPath><clipPath
       clipPathUnits="userSpaceOnUse"
       id="clipPath302"><path
         d="M -420.94501,-297.64499 V 892.91998 H 1262.835 V -297.64499 Z"
         id="path302" /></clipPath><clipPath
       clipPathUnits="userSpaceOnUse"
       id="clipPath304"><path
         d="M -420.94501,-297.64499 V 892.91998 H 1262.835 V -297.64499 Z"
         id="path304" /></clipPath><clipPath
       clipPathUnits="userSpaceOnUse"
       id="clipPath306"><path
         d="M -420.94501,-297.64499 V 892.91998 H 1262.835 V -297.64499 Z"
         id="path306" /></clipPath><clipPath
       clipPathUnits="userSpaceOnUse"
       id="clipPath308"><path
         d="M -420.94501,-297.64499 V 892.91998 H 1262.835 V -297.64499 Z"
         id="path308" /></clipPath><clipPath
       clipPathUnits="userSpaceOnUse"
       id="clipPath310"><path
         d="M -420.94501,-297.64499 V 892.91998 H 1262.835 V -297.64499 Z"
         id="path310" /></clipPath><clipPath
       clipPathUnits="userSpaceOnUse"
       id="clipPath312"><path
         d="M -420.94501,-297.64499 V 892.91998 H 1262.835 V -297.64499 Z"
         id="path312" /></clipPath><clipPath
       clipPathUnits="userSpaceOnUse"
       id="clipPath314"><path
         d="M -420.94501,-297.64499 V 892.91998 H 1262.835 V -297.64499 Z"
         id="path314" /></clipPath><clipPath
       clipPathUnits="userSpaceOnUse"
       id="clipPath316"><path
         d="M -420.94501,-297.64499 V 892.91998 H 1262.835 V -297.64499 Z"
         id="path316" /></clipPath><clipPath
       clipPathUnits="userSpaceOnUse"
       id="clipPath318"><path
         d="M -420.94501,-297.64499 V 892.91998 H 1262.835 V -297.64499 Z"
         id="path318" /></clipPath><clipPath
       clipPathUnits="userSpaceOnUse"
       id="clipPath325"><path
         d="M -420.94501,-297.64499 V 892.91998 H 1262.835 V -297.64499 Z"
         id="path325" /></clipPath><clipPath
       clipPathUnits="userSpaceOnUse"
       id="clipPath327"><path
         d="M -420.94501,-297.64499 V 892.91998 H 1262.835 V -297.64499 Z"
         id="path327" /></clipPath><clipPath
       clipPathUnits="userSpaceOnUse"
       id="clipPath329"><path
         d="M -420.94501,-297.64499 V 892.91998 H 1262.835 V -297.64499 Z"
         id="path329" /></clipPath><clipPath
       clipPathUnits="userSpaceOnUse"
       id="clipPath331"><path
         d="M -420.94501,-297.64499 V 892.91998 H 1262.835 V -297.64499 Z"
         id="path331" /></clipPath><clipPath
       clipPathUnits="userSpaceOnUse"
       id="clipPath333"><path
         d="M -420.94501,-297.64499 V 892.91998 H 1262.835 V -297.64499 Z"
         id="path333" /></clipPath><clipPath
       clipPathUnits="userSpaceOnUse"
       id="clipPath335"><path
         d="M -420.94501,-297.64499 V 892.91998 H 1262.835 V -297.64499 Z"
         id="path335" /></clipPath><clipPath
       clipPathUnits="userSpaceOnUse"
       id="clipPath337"><path
         d="M -420.94501,-297.64499 V 892.91998 H 1262.835 V -297.64499 Z"
         transform="matrix(-0.99810299,0.06150957,-0.06150957,-0.99810299,244.33067,463.19919)"
         id="path337" /></clipPath><clipPath
       clipPathUnits="userSpaceOnUse"
       id="clipPath339"><path
         d="M -420.94501,-297.64499 V 892.91998 H 1262.835 V -297.64499 Z"
         transform="matrix(-0.89643425,-0.4431821,0.4431821,-0.89643425,-18.482322,523.36659)"
         id="path339" /></clipPath><clipPath
       clipPathUnits="userSpaceOnUse"
       id="clipPath341"><path
         d="M -420.94501,-297.64499 V 892.91998 H 1262.835 V -297.64499 Z"
         id="path341" /></clipPath><clipPath
       clipPathUnits="userSpaceOnUse"
       id="clipPath343"><path
         d="M -420.94501,-297.64499 V 892.91998 H 1262.835 V -297.64499 Z"
         id="path343" /></clipPath><clipPath
       clipPathUnits="userSpaceOnUse"
       id="clipPath345"><path
         d="M -420.94501,-297.64499 V 892.91998 H 1262.835 V -297.64499 Z"
         id="path345" /></clipPath><filter
       style="color-interpolation-filters:sRGB;"
       inkscape:label="Invert"
       id="filter1"
       x="0"
       y="0"
       width="1.0013558"
       height="1.0011029"><feColorMatrix
         values="-1 0 0 0 1 0 -1 0 0 1 0 0 -1 0 1 -0.21 -0.72 -0.07 2 0 "
         result="color2"
         id="feColorMatrix1" /></filter></defs><g
     id="layer-oc8"
     transform="matrix(0.26458334,0,0,0.26458334,171.09047,-103.91506)"
     style="filter:url(#filter1)"><g
       id="g3"><path
         id="path26"
         d="m -506.50716,496.30273 -47.24001,27.27999 v -75.58 l 47.24001,27.26001 v 21.04"
         style="fill:none;stroke:#000000;stroke-width:0.38;stroke-linecap:round;stroke-linejoin:round;stroke-miterlimit:10;stroke-dasharray:none;stroke-opacity:1" /><path
         id="path277"
         d="m 137.925,456.09 v -7.07999"
         style="fill:none;stroke:#000000;stroke-width:0.285;stroke-linecap:round;stroke-linejoin:round;stroke-miterlimit:10;stroke-dasharray:none;stroke-opacity:1"
         transform="matrix(1.3333333,0,0,-1.3333333,-775.44715,1122.2627)"
         clip-path="url(#clipPath278)" /><path
         id="path279"
         d="m 136.515,456.09 v 0 l 1.41,-7.07999 1.42501,7.07999 z"
         style="fill:#000000;fill-opacity:1;fill-rule:evenodd;stroke:none"
         transform="matrix(1.3333333,0,0,-1.3333333,-775.44715,1122.2627)"
         clip-path="url(#clipPath280)" /><path
         id="path281"
         d="m 136.515,456.09 1.41,-7.07999 1.42501,7.07999 H 136.515"
         style="fill:none;stroke:#000000;stroke-width:0.285;stroke-linecap:round;stroke-linejoin:round;stroke-miterlimit:10;stroke-dasharray:none;stroke-opacity:1"
         transform="matrix(1.3333333,0,0,-1.3333333,-775.44715,1122.2627)"
         clip-path="url(#clipPath282)" /><path
         id="path283"
         d="m 137.925,498.61499 v 7.08002"
         style="fill:none;stroke:#000000;stroke-width:0.285;stroke-linecap:round;stroke-linejoin:round;stroke-miterlimit:10;stroke-dasharray:none;stroke-opacity:1"
         transform="matrix(1.3333333,0,0,-1.3333333,-775.44715,1122.2627)"
         clip-path="url(#clipPath284)" /><path
         id="path285"
         d="m 139.35001,498.61499 v 0 l -1.42501,7.08002 -1.41,-7.08002 z"
         style="fill:#000000;fill-opacity:1;fill-rule:evenodd;stroke:none"
         transform="matrix(1.3333333,0,0,-1.3333333,-775.44715,1122.2627)"
         clip-path="url(#clipPath286)" /><path
         id="path287"
         d="m 139.35001,498.61499 -1.42501,7.08002 -1.41,-7.08002 h 2.83501"
         style="fill:none;stroke:#000000;stroke-width:0.285;stroke-linecap:round;stroke-linejoin:round;stroke-miterlimit:10;stroke-dasharray:none;stroke-opacity:1"
         transform="matrix(1.3333333,0,0,-1.3333333,-775.44715,1122.2627)"
         clip-path="url(#clipPath288)" /><path
         id="path289"
         d="m 137.925,456.09 v 15.75"
         style="fill:none;stroke:#000000;stroke-width:0.285;stroke-linecap:round;stroke-linejoin:round;stroke-miterlimit:10;stroke-dasharray:none;stroke-opacity:1"
         transform="matrix(1.3333333,0,0,-1.3333333,-775.44715,1122.2627)"
         clip-path="url(#clipPath290)" /><path
         id="path291"
         d="m 137.925,482.86499 v 15.75"
         style="fill:none;stroke:#000000;stroke-width:0.285;stroke-linecap:round;stroke-linejoin:round;stroke-miterlimit:10;stroke-dasharray:none;stroke-opacity:1"
         transform="matrix(1.3333333,0,0,-1.3333333,-775.44715,1122.2627)"
         clip-path="url(#clipPath292)" /><path
         id="path293"
         d="m 161.745,449.01001 h -32.82"
         style="fill:none;stroke:#000000;stroke-width:0.285;stroke-linecap:round;stroke-linejoin:round;stroke-miterlimit:10;stroke-dasharray:none;stroke-opacity:1"
         transform="matrix(1.3333333,0,0,-1.3333333,-775.44715,1122.2627)"
         clip-path="url(#clipPath294)" /><path
         id="path295"
         d="m 161.745,505.69501 h -32.82"
         style="fill:none;stroke:#000000;stroke-width:0.285;stroke-linecap:round;stroke-linejoin:round;stroke-miterlimit:10;stroke-dasharray:none;stroke-opacity:1"
         transform="matrix(1.3333333,0,0,-1.3333333,-775.44715,1122.2627)"
         clip-path="url(#clipPath296)" /><path
         id="path301"
         d="m 173.37,534.04498 h -7.09501"
         style="fill:none;stroke:#000000;stroke-width:0.285;stroke-linecap:round;stroke-linejoin:round;stroke-miterlimit:10;stroke-dasharray:none;stroke-opacity:1"
         transform="matrix(1.3333333,0,0,-1.3333333,-775.44715,1122.2627)"
         clip-path="url(#clipPath302)" /><path
         id="path303"
         d="m 173.37,535.46997 v 0 l -7.09501,-1.42499 7.09501,-1.40997 z"
         style="fill:#000000;fill-opacity:1;fill-rule:evenodd;stroke:none"
         transform="matrix(1.3333333,0,0,-1.3333333,-775.44715,1122.2627)"
         clip-path="url(#clipPath304)" /><path
         id="path305"
         d="m 173.37,535.46997 -7.09501,-1.42499 7.09501,-1.40997 v 2.83496"
         style="fill:none;stroke:#000000;stroke-width:0.285;stroke-linecap:round;stroke-linejoin:round;stroke-miterlimit:10;stroke-dasharray:none;stroke-opacity:1"
         transform="matrix(1.3333333,0,0,-1.3333333,-775.44715,1122.2627)"
         clip-path="url(#clipPath306)" /><path
         id="path307"
         d="m 194.625,534.04498 h 7.08"
         style="fill:none;stroke:#000000;stroke-width:0.285;stroke-linecap:round;stroke-linejoin:round;stroke-miterlimit:10;stroke-dasharray:none;stroke-opacity:1"
         transform="matrix(1.3333333,0,0,-1.3333333,-775.44715,1122.2627)"
         clip-path="url(#clipPath308)" /><path
         id="path309"
         d="m 194.625,532.63501 v 0 l 7.08,1.40997 -7.08,1.42499 z"
         style="fill:#000000;fill-opacity:1;fill-rule:evenodd;stroke:none"
         transform="matrix(1.3333333,0,0,-1.3333333,-775.44715,1122.2627)"
         clip-path="url(#clipPath310)" /><path
         id="path311"
         d="m 194.625,532.63501 7.08,1.40997 -7.08,1.42499 v -2.83496"
         style="fill:none;stroke:#000000;stroke-width:0.285;stroke-linecap:round;stroke-linejoin:round;stroke-miterlimit:10;stroke-dasharray:none;stroke-opacity:1"
         transform="matrix(1.3333333,0,0,-1.3333333,-775.44715,1122.2627)"
         clip-path="url(#clipPath312)" /><path
         id="path313"
         d="m 173.37,534.04498 h 21.255"
         style="fill:none;stroke:#000000;stroke-width:0.285;stroke-linecap:round;stroke-linejoin:round;stroke-miterlimit:10;stroke-dasharray:none;stroke-opacity:1"
         transform="matrix(1.3333333,0,0,-1.3333333,-775.44715,1122.2627)"
         clip-path="url(#clipPath314)" /><path
         id="path315"
         d="m 166.27499,510.23999 v 32.80499"
         style="fill:none;stroke:#000000;stroke-width:0.285;stroke-linecap:round;stroke-linejoin:round;stroke-miterlimit:10;stroke-dasharray:none;stroke-opacity:1"
         transform="matrix(1.3333333,0,0,-1.3333333,-775.44715,1122.2627)"
         clip-path="url(#clipPath316)" /><path
         id="path317"
         d="m 201.705,489.78 v 53.26498"
         style="fill:none;stroke:#000000;stroke-width:0.285;stroke-linecap:round;stroke-linejoin:round;stroke-miterlimit:10;stroke-dasharray:none;stroke-opacity:1"
         transform="matrix(1.3333333,0,0,-1.3333333,-775.44715,1122.2627)"
         clip-path="url(#clipPath318)" /><path
         id="path324"
         d="m 116.895,428.67001 3.345,-6.24002"
         style="fill:none;stroke:#000000;stroke-width:0.285;stroke-linecap:round;stroke-linejoin:round;stroke-miterlimit:10;stroke-dasharray:none;stroke-opacity:1"
         transform="matrix(1.3333333,0,0,-1.3333333,-775.44715,1122.2627)"
         clip-path="url(#clipPath325)" /><path
         id="path326"
         d="m 115.635,428.01001 v 0 l 4.605,-5.58002 -2.1,6.91501 z"
         style="fill:#000000;fill-opacity:1;fill-rule:evenodd;stroke:none"
         transform="matrix(1.3333333,0,0,-1.3333333,-775.44715,1122.2627)"
         clip-path="url(#clipPath327)" /><path
         id="path328"
         d="m 115.635,428.01001 4.605,-5.58002 -2.1,6.91501 -2.505,-1.33499"
         style="fill:none;stroke:#000000;stroke-width:0.285;stroke-linecap:round;stroke-linejoin:round;stroke-miterlimit:10;stroke-dasharray:none;stroke-opacity:1"
         transform="matrix(1.3333333,0,0,-1.3333333,-775.44715,1122.2627)"
         clip-path="url(#clipPath329)" /><path
         id="path330"
         d="m 116.895,526.03497 3.345,6.25501"
         style="fill:none;stroke:#000000;stroke-width:0.285;stroke-linecap:round;stroke-linejoin:round;stroke-miterlimit:10;stroke-dasharray:none;stroke-opacity:1"
         transform="matrix(1.3333333,0,0,-1.3333333,-775.44715,1122.2627)"
         clip-path="url(#clipPath331)" /><path
         id="path332"
         d="m 118.14,525.375 v 0 l 2.1,6.91498 -4.605,-5.57996 z"
         style="fill:#000000;fill-opacity:1;fill-rule:evenodd;stroke:none"
         transform="matrix(1.3333333,0,0,-1.3333333,-775.44715,1122.2627)"
         clip-path="url(#clipPath333)" /><path
         id="path334"
         d="m 118.14,525.375 2.1,6.91498 -4.605,-5.57996 2.505,-1.33502"
         style="fill:none;stroke:#000000;stroke-width:0.285;stroke-linecap:round;stroke-linejoin:round;stroke-miterlimit:10;stroke-dasharray:none;stroke-opacity:1"
         transform="matrix(1.3333333,0,0,-1.3333333,-775.44715,1122.2627)"
         clip-path="url(#clipPath335)" /><path
         id="path336"
         d="m 109.8525,0 c 0,14.60329 -2.91166,29.06002 -8.56471,42.52476"
         style="fill:none;stroke:#000000;stroke-width:0.285;stroke-linecap:round;stroke-linejoin:round;stroke-miterlimit:10;stroke-dasharray:none;stroke-opacity:1"
         transform="matrix(-1.3308133,0.08201333,0.08201333,1.3308133,-488.27715,485.79271)"
         clip-path="url(#clipPath337)" /><path
         id="path338"
         d="m 109.8525,0 c 0,14.60329 -2.91166,29.06002 -8.56471,42.52476"
         style="fill:none;stroke:#000000;stroke-width:0.285;stroke-linecap:round;stroke-linejoin:round;stroke-miterlimit:10;stroke-dasharray:none;stroke-opacity:1"
         transform="matrix(-1.19524,-0.59090667,-0.59090667,1.19524,-488.27715,485.79271)"
         clip-path="url(#clipPath339)" /><path
         id="path340"
         d="M 162.345,446.745 112.44,417.92999"
         style="fill:none;stroke:#000000;stroke-width:0.285;stroke-linecap:round;stroke-linejoin:round;stroke-miterlimit:10;stroke-dasharray:none;stroke-opacity:1"
         transform="matrix(1.3333333,0,0,-1.3333333,-775.44715,1122.2627)"
         clip-path="url(#clipPath341)" /><path
         id="path342"
         d="M 162.345,507.97501 128.91,527.28003"
         style="fill:none;stroke:#000000;stroke-width:0.285;stroke-linecap:round;stroke-linejoin:round;stroke-miterlimit:10;stroke-dasharray:none;stroke-opacity:1"
         transform="matrix(1.3333333,0,0,-1.3333333,-775.44715,1122.2627)"
         clip-path="url(#clipPath343)" /><path
         id="path344"
         d="M 128.39999,527.58002 112.44,536.78998"
         style="fill:none;stroke:#000000;stroke-width:0.285;stroke-linecap:round;stroke-linejoin:round;stroke-miterlimit:10;stroke-dasharray:none;stroke-opacity:1"
         transform="matrix(1.3333333,0,0,-1.3333333,-775.44715,1122.2627)"
         clip-path="url(#clipPath345)" /><text
         xml:space="preserve"
         style="text-align:start;writing-mode:lr-tb;direction:ltr;text-anchor:start;fill:#000000"
         x="-647.60205"
         y="490.86292"
         id="text2"><tspan
           id="tspan2"
           x="-647.60205"
           y="490.86292"
           style="font-style:normal;font-variant:normal;font-weight:normal;font-stretch:normal;font-size:16px;font-family:Consolas;-inkscape-font-specification:'Consolas, Normal';font-variant-ligatures:normal;font-variant-caps:normal;font-variant-numeric:normal;font-variant-east-asian:normal">60°</tspan></text><text
         xml:space="preserve"
         style="text-align:start;writing-mode:lr-tb;direction:ltr;text-anchor:start;fill:#000000"
         x="-596.04523"
         y="490.76791"
         id="text2-52-3"><tspan
           id="tspan2-7-2"
           x="-596.04523"
           y="490.76791"
           style="font-style:normal;font-variant:normal;font-weight:normal;font-stretch:normal;font-size:16px;font-family:Consolas;-inkscape-font-specification:'Consolas, Normal';font-variant-ligatures:normal;font-variant-caps:normal;font-variant-numeric:normal;font-variant-east-asian:normal">2</tspan></text><text
         xml:space="preserve"
         style="text-align:start;writing-mode:lr-tb;direction:ltr;text-anchor:start;fill:#000000"
         x="-546.80554"
         y="403.10138"
         id="text2-5"><tspan
           id="tspan2-5"
           x="-546.80554"
           y="403.10138"
           style="font-style:normal;font-variant:normal;font-weight:normal;font-stretch:normal;font-size:16px;font-family:Consolas;-inkscape-font-specification:'Consolas, Normal';font-variant-ligatures:normal;font-variant-caps:normal;font-variant-numeric:normal;font-variant-east-asian:normal">1.25</tspan></text></g></g></svg>
